<svg width="48" height="48" viewBox="0 0 48 48" fill="none" xmlns="http://www.w3.org/2000/svg">
<path d="M43.8297 10.9471C43.8297 9.14982 43.1157 7.42612 41.8448 6.15522C40.5739 4.88432 38.8502 4.17034 37.0529 4.17034H13.0734C11.2761 4.17034 9.55238 4.88432 8.28148 6.15522C7.01058 7.42612 6.2966 9.14982 6.2966 10.9471V20.345C7.23489 19.5697 8.29071 18.9489 9.42435 18.5059V10.9471C9.42435 8.93287 11.0591 7.2981 13.0734 7.2981H37.0529C39.0671 7.2981 40.7019 8.93287 40.7019 10.9471V34.9266C40.7019 35.3624 40.6247 35.7794 40.485 36.1673L28.3452 24.2776L28.0783 24.0358C27.4393 23.5002 26.6692 23.1445 25.8472 23.0052C25.0252 22.866 24.181 22.9482 23.4012 23.2434C23.9413 24.1296 24.3625 25.0971 24.6482 26.1209C24.9121 26.0484 25.1905 26.0465 25.4554 26.1153C25.7203 26.1841 25.9625 26.3212 26.1578 26.5129L38.2623 38.3671C37.873 38.5041 37.4634 38.5739 37.0508 38.5736H27.0941L28.1617 39.6432C28.7414 40.2208 29.0854 40.9486 29.1939 41.7013H37.0508C37.9407 41.7016 38.822 41.5266 39.6443 41.1863C40.4666 40.8459 41.2138 40.347 41.8433 39.7179C42.4728 39.0888 42.9722 38.3419 43.313 37.5198C43.6538 36.6977 43.8294 35.8165 43.8297 34.9266V10.9471ZM36.5399 16.1642C36.5399 14.9188 36.0452 13.7244 35.1645 12.8438C34.2839 11.9632 33.0895 11.4684 31.8441 11.4684C30.5987 11.4684 29.4043 11.9632 28.5237 12.8438C27.643 13.7244 27.1483 14.9188 27.1483 16.1642C27.1483 17.4096 27.643 18.604 28.5237 19.4847C29.4043 20.3653 30.5987 20.86 31.8441 20.86C33.0895 20.86 34.2839 20.3653 35.1645 19.4847C36.0452 18.604 36.5399 17.4096 36.5399 16.1642V16.1642ZM30.2761 16.1642C30.2761 15.7484 30.4413 15.3495 30.7353 15.0555C31.0294 14.7614 31.4282 14.5962 31.8441 14.5962C32.26 14.5962 32.6588 14.7614 32.9529 15.0555C33.2469 15.3495 33.4121 15.7484 33.4121 16.1642C33.4121 16.5801 33.2469 16.9789 32.9529 17.273C32.6588 17.5671 32.26 17.7323 31.8441 17.7323C31.4282 17.7323 31.0294 17.5671 30.7353 17.273C30.4413 16.9789 30.2761 16.5801 30.2761 16.1642ZM20.7885 35.2185C22.2985 33.4147 23.0758 31.1096 22.9666 28.7598C22.8573 26.41 21.8695 24.1869 20.1987 22.531C18.5279 20.8751 16.2961 19.9071 13.9454 19.8189C11.5947 19.7307 9.29663 20.5286 7.50641 22.0546C5.71619 23.5805 4.56444 25.7233 4.27933 28.0583C3.99422 30.3933 4.59655 32.7502 5.967 34.6621C7.33744 36.574 9.37602 37.9015 11.6789 38.3814C13.9817 38.8614 16.3809 38.4589 18.401 37.2536L24.4793 43.3319C24.6225 43.4856 24.7951 43.6088 24.9869 43.6943C25.1788 43.7798 25.3859 43.8257 25.5958 43.8294C25.8058 43.8331 26.0144 43.7945 26.2091 43.7158C26.4039 43.6372 26.5808 43.5201 26.7293 43.3716C26.8778 43.2231 26.9948 43.0462 27.0735 42.8515C27.1521 42.6568 27.1908 42.4482 27.1871 42.2382C27.1834 42.0282 27.1374 41.8211 27.0519 41.6293C26.9664 41.4375 26.8432 41.2648 26.6896 41.1216L20.7885 35.2206V35.2185ZM13.5947 35.4479C11.9356 35.4479 10.3445 34.7888 9.17138 33.6157C7.99825 32.4426 7.33919 30.8514 7.33919 29.1924C7.33919 27.5333 7.99825 25.9422 9.17138 24.7691C10.3445 23.5959 11.9356 22.9369 13.5947 22.9369C15.2538 22.9369 16.8449 23.5959 18.018 24.7691C19.1911 25.9422 19.8502 27.5333 19.8502 29.1924C19.8502 30.8514 19.1911 32.4426 18.018 33.6157C16.8449 34.7888 15.2538 35.4479 13.5947 35.4479Z" fill="#7316EA"/>
</svg>
